<?xml version="1.0" encoding="UTF-8" standalone="no"?>
<!DOCTYPE svg PUBLIC "-//W3C//DTD SVG 1.1//EN"
 "http://www.w3.org/Graphics/SVG/1.1/DTD/svg11.dtd">
<!-- Generated by graphviz version 2.38.0 (20140413.2041)
 -->
<!-- Title: data_relationships Pages: 1 -->
<svg width="931pt" height="616pt"
 viewBox="0.00 0.00 931.00 616.00" xmlns="http://www.w3.org/2000/svg" xmlns:xlink="http://www.w3.org/1999/xlink">
<g id="graph0" class="graph" transform="scale(1 1) rotate(0) translate(4 612)">
<title>data_relationships</title>
<polygon fill="#e8e8e8" stroke="none" points="-4,4 -4,-612 927,-612 927,4 -4,4"/>
<g id="clust1" class="cluster"><title>cluster2</title>
<path fill="lightyellow" stroke="black" d="M20,-8C20,-8 903,-8 903,-8 909,-8 915,-14 915,-20 915,-20 915,-588 915,-588 915,-594 909,-600 903,-600 903,-600 20,-600 20,-600 14,-600 8,-594 8,-588 8,-588 8,-20 8,-20 8,-14 14,-8 20,-8"/>
<text text-anchor="middle" x="461.5" y="-589.6" font-family="Arial" font-size="8.00">firmware</text>
</g>
<g id="clust2" class="cluster"><title>cluster3</title>
<path fill="lightyellow" stroke="black" d="M385,-372C385,-372 715,-372 715,-372 721,-372 727,-378 727,-384 727,-384 727,-410 727,-410 727,-416 721,-422 715,-422 715,-422 385,-422 385,-422 379,-422 373,-416 373,-410 373,-410 373,-384 373,-384 373,-378 379,-372 385,-372"/>
<text text-anchor="middle" x="550" y="-411.6" font-family="Arial" font-size="8.00">vmcs</text>
</g>
<g id="clust3" class="cluster"><title>cluster4</title>
<path fill="lightyellow" stroke="black" d="M328,-16C328,-16 552,-16 552,-16 558,-16 564,-22 564,-28 564,-28 564,-321 564,-321 564,-327 558,-333 552,-333 552,-333 328,-333 328,-333 322,-333 316,-327 316,-321 316,-321 316,-28 316,-28 316,-22 322,-16 328,-16"/>
<text text-anchor="middle" x="440" y="-322.6" font-family="Arial" font-size="8.00">omx</text>
</g>
<!-- vmcs_host/vcilcs -->
<g id="node1" class="node"><title>vmcs_host/vcilcs</title>
<path fill="white" stroke="grey" d="M587.333,-397C587.333,-397 518.667,-397 518.667,-397 515.833,-397 513,-394.167 513,-391.333 513,-391.333 513,-385.667 513,-385.667 513,-382.833 515.833,-380 518.667,-380 518.667,-380 587.333,-380 587.333,-380 590.167,-380 593,-382.833 593,-385.667 593,-385.667 593,-391.333 593,-391.333 593,-394.167 590.167,-397 587.333,-397"/>
<text text-anchor="middle" x="553" y="-386.6" font-family="Arial" font-size="8.00">vmcs_host/vcilcs</text>
</g>
<!-- OMX_Component -->
<g id="node4" class="node"><title>OMX_Component</title>
<path fill="white" stroke="grey" d="M472.833,-308C472.833,-308 405.167,-308 405.167,-308 402.333,-308 399.5,-305.167 399.5,-302.333 399.5,-302.333 399.5,-296.667 399.5,-296.667 399.5,-293.833 402.333,-291 405.167,-291 405.167,-291 472.833,-291 472.833,-291 475.667,-291 478.5,-293.833 478.5,-296.667 478.5,-296.667 478.5,-302.333 478.5,-302.333 478.5,-305.167 475.667,-308 472.833,-308"/>
<text text-anchor="middle" x="439" y="-297.6" font-family="Arial" font-size="8.00">OMX_Component</text>
</g>
<!-- vmcs_host/vcilcs&#45;&gt;OMX_Component -->
<g id="edge25" class="edge"><title>vmcs_host/vcilcs&#45;&gt;OMX_Component</title>
<path fill="none" stroke="black" d="M542.883,-379.779C522.466,-364.198 476.299,-328.965 453.004,-311.187"/>
<polygon fill="black" stroke="black" points="453.968,-309.721 448.931,-308.079 451.844,-312.504 453.968,-309.721"/>
</g>
<!-- vmcs_host/vc_dispmanx -->
<g id="node2" class="node"><title>vmcs_host/vc_dispmanx</title>
<path fill="white" stroke="grey" d="M712.833,-397C712.833,-397 617.167,-397 617.167,-397 614.333,-397 611.5,-394.167 611.5,-391.333 611.5,-391.333 611.5,-385.667 611.5,-385.667 611.5,-382.833 614.333,-380 617.167,-380 617.167,-380 712.833,-380 712.833,-380 715.667,-380 718.5,-382.833 718.5,-385.667 718.5,-385.667 718.5,-391.333 718.5,-391.333 718.5,-394.167 715.667,-397 712.833,-397"/>
<text text-anchor="middle" x="665" y="-386.6" font-family="Arial" font-size="8.00">vmcs_host/vc_dispmanx</text>
</g>
<!-- vmcs_host/vc_cecservice -->
<g id="node3" class="node"><title>vmcs_host/vc_cecservice</title>
<path fill="white" stroke="grey" d="M488.833,-397C488.833,-397 387.167,-397 387.167,-397 384.333,-397 381.5,-394.167 381.5,-391.333 381.5,-391.333 381.5,-385.667 381.5,-385.667 381.5,-382.833 384.333,-380 387.167,-380 387.167,-380 488.833,-380 488.833,-380 491.667,-380 494.5,-382.833 494.5,-385.667 494.5,-385.667 494.5,-391.333 494.5,-391.333 494.5,-394.167 491.667,-397 488.833,-397"/>
<text text-anchor="middle" x="438" y="-386.6" font-family="Arial" font-size="8.00">vmcs_host/vc_cecservice</text>
</g>
<!-- OMX_Audio -->
<g id="node5" class="node"><title>OMX_Audio</title>
<path fill="white" stroke="grey" d="M377.833,-130C377.833,-130 330.167,-130 330.167,-130 327.333,-130 324.5,-127.167 324.5,-124.333 324.5,-124.333 324.5,-118.667 324.5,-118.667 324.5,-115.833 327.333,-113 330.167,-113 330.167,-113 377.833,-113 377.833,-113 380.667,-113 383.5,-115.833 383.5,-118.667 383.5,-118.667 383.5,-124.333 383.5,-124.333 383.5,-127.167 380.667,-130 377.833,-130"/>
<text text-anchor="middle" x="354" y="-119.6" font-family="Arial" font-size="8.00">OMX_Audio</text>
</g>
<!-- OMX_Component&#45;&gt;OMX_Audio -->
<g id="edge1" class="edge"><title>OMX_Component&#45;&gt;OMX_Audio</title>
<path fill="none" stroke="black" d="M428.088,-290.963C410.821,-278.344 377.66,-251.139 363,-219 350.407,-191.392 351.09,-154.791 352.594,-135.569"/>
<polygon fill="black" stroke="black" points="354.372,-135.327 353.073,-130.191 350.886,-135.016 354.372,-135.327"/>
</g>
<!-- OMX_Video -->
<g id="node7" class="node"><title>OMX_Video</title>
<path fill="white" stroke="grey" d="M424.833,-219C424.833,-219 377.167,-219 377.167,-219 374.333,-219 371.5,-216.167 371.5,-213.333 371.5,-213.333 371.5,-207.667 371.5,-207.667 371.5,-204.833 374.333,-202 377.167,-202 377.167,-202 424.833,-202 424.833,-202 427.667,-202 430.5,-204.833 430.5,-207.667 430.5,-207.667 430.5,-213.333 430.5,-213.333 430.5,-216.167 427.667,-219 424.833,-219"/>
<text text-anchor="middle" x="401" y="-208.6" font-family="Arial" font-size="8.00">OMX_Video</text>
</g>
<!-- OMX_Component&#45;&gt;OMX_Video -->
<g id="edge3" class="edge"><title>OMX_Component&#45;&gt;OMX_Video</title>
<path fill="none" stroke="black" d="M435.628,-290.779C429.02,-275.65 414.32,-241.995 406.363,-223.779"/>
<polygon fill="black" stroke="black" points="407.916,-222.961 404.31,-219.079 404.708,-224.362 407.916,-222.961"/>
</g>
<!-- OMX_Image -->
<g id="node9" class="node"><title>OMX_Image</title>
<path fill="white" stroke="grey" d="M501.833,-219C501.833,-219 454.167,-219 454.167,-219 451.333,-219 448.5,-216.167 448.5,-213.333 448.5,-213.333 448.5,-207.667 448.5,-207.667 448.5,-204.833 451.333,-202 454.167,-202 454.167,-202 501.833,-202 501.833,-202 504.667,-202 507.5,-204.833 507.5,-207.667 507.5,-207.667 507.5,-213.333 507.5,-213.333 507.5,-216.167 504.667,-219 501.833,-219"/>
<text text-anchor="middle" x="478" y="-208.6" font-family="Arial" font-size="8.00">OMX_Image</text>
</g>
<!-- OMX_Component&#45;&gt;OMX_Image -->
<g id="edge5" class="edge"><title>OMX_Component&#45;&gt;OMX_Image</title>
<path fill="none" stroke="black" d="M442.461,-290.779C449.243,-275.65 464.33,-241.995 472.495,-223.779"/>
<polygon fill="black" stroke="black" points="474.154,-224.358 474.602,-219.079 470.96,-222.926 474.154,-224.358"/>
</g>
<!-- OMX_Other -->
<g id="node10" class="node"><title>OMX_Other</title>
<path fill="white" stroke="grey" d="M549.833,-130C549.833,-130 502.167,-130 502.167,-130 499.333,-130 496.5,-127.167 496.5,-124.333 496.5,-124.333 496.5,-118.667 496.5,-118.667 496.5,-115.833 499.333,-113 502.167,-113 502.167,-113 549.833,-113 549.833,-113 552.667,-113 555.5,-115.833 555.5,-118.667 555.5,-118.667 555.5,-124.333 555.5,-124.333 555.5,-127.167 552.667,-130 549.833,-130"/>
<text text-anchor="middle" x="526" y="-119.6" font-family="Arial" font-size="8.00">OMX_Other</text>
</g>
<!-- OMX_Component&#45;&gt;OMX_Other -->
<g id="edge7" class="edge"><title>OMX_Component&#45;&gt;OMX_Other</title>
<path fill="none" stroke="black" d="M450.486,-290.83C468.282,-278.223 502.025,-251.273 517,-219 529.772,-191.474 529.016,-154.84 527.453,-135.591"/>
<polygon fill="black" stroke="black" points="529.158,-135.023 526.956,-130.204 525.673,-135.344 529.158,-135.023"/>
</g>
<!-- OMX_Core -->
<g id="node6" class="node"><title>OMX_Core</title>
<path fill="white" stroke="grey" d="M462.333,-41C462.333,-41 417.667,-41 417.667,-41 414.833,-41 412,-38.1667 412,-35.3333 412,-35.3333 412,-29.6667 412,-29.6667 412,-26.8333 414.833,-24 417.667,-24 417.667,-24 462.333,-24 462.333,-24 465.167,-24 468,-26.8333 468,-29.6667 468,-29.6667 468,-35.3333 468,-35.3333 468,-38.1667 465.167,-41 462.333,-41"/>
<text text-anchor="middle" x="440" y="-30.6" font-family="Arial" font-size="8.00">OMX_Core</text>
</g>
<!-- OMX_Audio&#45;&gt;OMX_Core -->
<g id="edge2" class="edge"><title>OMX_Audio&#45;&gt;OMX_Core</title>
<path fill="none" stroke="black" d="M361.632,-112.779C376.843,-97.3918 410.998,-62.8393 428.772,-44.8589"/>
<polygon fill="black" stroke="black" points="430.237,-45.8654 432.508,-41.0791 427.748,-43.4048 430.237,-45.8654"/>
</g>
<!-- OMX_IVCommon -->
<g id="node8" class="node"><title>OMX_IVCommon</title>
<path fill="white" stroke="grey" d="M472.833,-130C472.833,-130 407.167,-130 407.167,-130 404.333,-130 401.5,-127.167 401.5,-124.333 401.5,-124.333 401.5,-118.667 401.5,-118.667 401.5,-115.833 404.333,-113 407.167,-113 407.167,-113 472.833,-113 472.833,-113 475.667,-113 478.5,-115.833 478.5,-118.667 478.5,-118.667 478.5,-124.333 478.5,-124.333 478.5,-127.167 475.667,-130 472.833,-130"/>
<text text-anchor="middle" x="440" y="-119.6" font-family="Arial" font-size="8.00">OMX_IVCommon</text>
</g>
<!-- OMX_Video&#45;&gt;OMX_IVCommon -->
<g id="edge4" class="edge"><title>OMX_Video&#45;&gt;OMX_IVCommon</title>
<path fill="none" stroke="black" d="M404.461,-201.779C411.243,-186.65 426.33,-152.995 434.495,-134.779"/>
<polygon fill="black" stroke="black" points="436.154,-135.358 436.602,-130.079 432.96,-133.926 436.154,-135.358"/>
</g>
<!-- OMX_IVCommon&#45;&gt;OMX_Core -->
<g id="edge9" class="edge"><title>OMX_IVCommon&#45;&gt;OMX_Core</title>
<path fill="none" stroke="black" d="M440,-112.779C440,-97.7797 440,-64.5692 440,-46.2498"/>
<polygon fill="black" stroke="black" points="441.75,-46.0791 440,-41.0791 438.25,-46.0792 441.75,-46.0791"/>
</g>
<!-- OMX_Image&#45;&gt;OMX_IVCommon -->
<g id="edge6" class="edge"><title>OMX_Image&#45;&gt;OMX_IVCommon</title>
<path fill="none" stroke="black" d="M474.628,-201.779C468.02,-186.65 453.32,-152.995 445.363,-134.779"/>
<polygon fill="black" stroke="black" points="446.916,-133.961 443.31,-130.079 443.708,-135.362 446.916,-133.961"/>
</g>
<!-- OMX_Other&#45;&gt;OMX_Core -->
<g id="edge8" class="edge"><title>OMX_Other&#45;&gt;OMX_Core</title>
<path fill="none" stroke="black" d="M518.368,-112.779C503.157,-97.3918 469.002,-62.8393 451.228,-44.8589"/>
<polygon fill="black" stroke="black" points="452.252,-43.4048 447.492,-41.0791 449.763,-45.8654 452.252,-43.4048"/>
</g>
<!-- hello_pi/hello_jpeg -->
<g id="node11" class="node"><title>hello_pi/hello_jpeg</title>
<path fill="white" stroke="grey" d="M478.333,-575C478.333,-575 407.667,-575 407.667,-575 404.833,-575 402,-572.167 402,-569.333 402,-569.333 402,-563.667 402,-563.667 402,-560.833 404.833,-558 407.667,-558 407.667,-558 478.333,-558 478.333,-558 481.167,-558 484,-560.833 484,-563.667 484,-563.667 484,-569.333 484,-569.333 484,-572.167 481.167,-575 478.333,-575"/>
<text text-anchor="middle" x="443" y="-564.6" font-family="Arial" font-size="8.00">hello_pi/hello_jpeg</text>
</g>
<!-- bcm_host -->
<g id="node12" class="node"><title>bcm_host</title>
<path fill="white" stroke="grey" d="M463.333,-486C463.333,-486 422.667,-486 422.667,-486 419.833,-486 417,-483.167 417,-480.333 417,-480.333 417,-474.667 417,-474.667 417,-471.833 419.833,-469 422.667,-469 422.667,-469 463.333,-469 463.333,-469 466.167,-469 469,-471.833 469,-474.667 469,-474.667 469,-480.333 469,-480.333 469,-483.167 466.167,-486 463.333,-486"/>
<text text-anchor="middle" x="443" y="-475.6" font-family="Arial" font-size="8.00">bcm_host</text>
</g>
<!-- hello_pi/hello_jpeg&#45;&gt;bcm_host -->
<g id="edge10" class="edge"><title>hello_pi/hello_jpeg&#45;&gt;bcm_host</title>
<path fill="none" stroke="#bfbfbf" d="M443,-557.779C443,-542.78 443,-509.569 443,-491.25"/>
<polygon fill="#bfbfbf" stroke="#bfbfbf" points="444.75,-491.079 443,-486.079 441.25,-491.079 444.75,-491.079"/>
</g>
<!-- ilclient -->
<g id="node13" class="node"><title>ilclient</title>
<path fill="white" stroke="grey" d="M562.333,-486C562.333,-486 535.667,-486 535.667,-486 532.833,-486 530,-483.167 530,-480.333 530,-480.333 530,-474.667 530,-474.667 530,-471.833 532.833,-469 535.667,-469 535.667,-469 562.333,-469 562.333,-469 565.167,-469 568,-471.833 568,-474.667 568,-474.667 568,-480.333 568,-480.333 568,-483.167 565.167,-486 562.333,-486"/>
<text text-anchor="middle" x="549" y="-475.6" font-family="Arial" font-size="8.00">ilclient</text>
</g>
<!-- hello_pi/hello_jpeg&#45;&gt;ilclient -->
<g id="edge11" class="edge"><title>hello_pi/hello_jpeg&#45;&gt;ilclient</title>
<path fill="none" stroke="black" d="M452.407,-557.779C471.312,-542.262 513.962,-507.257 535.708,-489.409"/>
<polygon fill="black" stroke="black" points="537.011,-490.604 539.766,-486.079 534.79,-487.899 537.011,-490.604"/>
</g>
<!-- bcm_host&#45;&gt;vmcs_host/vc_dispmanx -->
<g id="edge29" class="edge"><title>bcm_host&#45;&gt;vmcs_host/vc_dispmanx</title>
<path fill="none" stroke="black" d="M468.767,-468.941C500.579,-459.32 556.103,-441.58 602,-422 617.59,-415.349 634.639,-406.448 647.065,-399.643"/>
<polygon fill="black" stroke="black" points="648.223,-401.003 651.755,-397.054 646.532,-397.939 648.223,-401.003"/>
</g>
<!-- bcm_host&#45;&gt;vmcs_host/vc_cecservice -->
<g id="edge30" class="edge"><title>bcm_host&#45;&gt;vmcs_host/vc_cecservice</title>
<path fill="none" stroke="black" d="M442.556,-468.779C441.694,-453.78 439.786,-420.569 438.733,-402.25"/>
<polygon fill="black" stroke="black" points="440.47,-401.97 438.436,-397.079 436.975,-402.171 440.47,-401.97"/>
</g>
<!-- ilclient&#45;&gt;vmcs_host/vcilcs -->
<g id="edge24" class="edge"><title>ilclient&#45;&gt;vmcs_host/vcilcs</title>
<path fill="none" stroke="black" d="M549.355,-468.779C550.045,-453.78 551.572,-420.569 552.414,-402.25"/>
<polygon fill="black" stroke="black" points="554.17,-402.154 552.652,-397.079 550.674,-401.993 554.17,-402.154"/>
</g>
<!-- OMX_Broadcom -->
<g id="node23" class="node"><title>OMX_Broadcom</title>
<path fill="white" stroke="grey" d="M357.833,-397C357.833,-397 294.167,-397 294.167,-397 291.333,-397 288.5,-394.167 288.5,-391.333 288.5,-391.333 288.5,-385.667 288.5,-385.667 288.5,-382.833 291.333,-380 294.167,-380 294.167,-380 357.833,-380 357.833,-380 360.667,-380 363.5,-382.833 363.5,-385.667 363.5,-385.667 363.5,-391.333 363.5,-391.333 363.5,-394.167 360.667,-397 357.833,-397"/>
<text text-anchor="middle" x="326" y="-386.6" font-family="Arial" font-size="8.00">OMX_Broadcom</text>
</g>
<!-- ilclient&#45;&gt;OMX_Broadcom -->
<g id="edge23" class="edge"><title>ilclient&#45;&gt;OMX_Broadcom</title>
<path fill="none" stroke="black" d="M529.768,-473.005C495.901,-466.352 424.002,-449.981 369,-422 357.881,-416.343 346.682,-407.765 338.501,-400.841"/>
<polygon fill="black" stroke="black" points="339.212,-399.143 334.286,-397.194 336.922,-401.79 339.212,-399.143"/>
</g>
<!-- hello_pi/hello_font -->
<g id="node14" class="node"><title>hello_pi/hello_font</title>
<path fill="white" stroke="grey" d="M900.833,-575C900.833,-575 831.167,-575 831.167,-575 828.333,-575 825.5,-572.167 825.5,-569.333 825.5,-569.333 825.5,-563.667 825.5,-563.667 825.5,-560.833 828.333,-558 831.167,-558 831.167,-558 900.833,-558 900.833,-558 903.667,-558 906.5,-560.833 906.5,-563.667 906.5,-563.667 906.5,-569.333 906.5,-569.333 906.5,-572.167 903.667,-575 900.833,-575"/>
<text text-anchor="middle" x="866" y="-564.6" font-family="Arial" font-size="8.00">hello_pi/hello_font</text>
</g>
<!-- hello_pi/hello_font&#45;&gt;bcm_host -->
<g id="edge12" class="edge"><title>hello_pi/hello_font&#45;&gt;bcm_host</title>
<path fill="none" stroke="#bfbfbf" d="M829.201,-557.932C747.25,-541.076 550.918,-500.696 474.34,-484.946"/>
<polygon fill="#bfbfbf" stroke="#bfbfbf" points="474.286,-483.148 469.036,-483.855 473.581,-486.576 474.286,-483.148"/>
</g>
<!-- vgfont -->
<g id="node15" class="node"><title>vgfont</title>
<path fill="white" stroke="grey" d="M880.333,-486C880.333,-486 851.667,-486 851.667,-486 848.833,-486 846,-483.167 846,-480.333 846,-480.333 846,-474.667 846,-474.667 846,-471.833 848.833,-469 851.667,-469 851.667,-469 880.333,-469 880.333,-469 883.167,-469 886,-471.833 886,-474.667 886,-474.667 886,-480.333 886,-480.333 886,-483.167 883.167,-486 880.333,-486"/>
<text text-anchor="middle" x="866" y="-475.6" font-family="Arial" font-size="8.00">vgfont</text>
</g>
<!-- hello_pi/hello_font&#45;&gt;vgfont -->
<g id="edge13" class="edge"><title>hello_pi/hello_font&#45;&gt;vgfont</title>
<path fill="none" stroke="black" d="M866,-557.779C866,-542.78 866,-509.569 866,-491.25"/>
<polygon fill="black" stroke="black" points="867.75,-491.079 866,-486.079 864.25,-491.079 867.75,-491.079"/>
</g>
<!-- hello_pi/hello_video -->
<g id="node16" class="node"><title>hello_pi/hello_video</title>
<path fill="pink" stroke="grey" d="M694.333,-575C694.333,-575 619.667,-575 619.667,-575 616.833,-575 614,-572.167 614,-569.333 614,-569.333 614,-563.667 614,-563.667 614,-560.833 616.833,-558 619.667,-558 619.667,-558 694.333,-558 694.333,-558 697.167,-558 700,-560.833 700,-563.667 700,-563.667 700,-569.333 700,-569.333 700,-572.167 697.167,-575 694.333,-575"/>
<text text-anchor="middle" x="657" y="-564.6" font-family="Arial" font-size="8.00">hello_pi/hello_video</text>
</g>
<!-- hello_pi/hello_video&#45;&gt;bcm_host -->
<g id="edge14" class="edge"><title>hello_pi/hello_video&#45;&gt;bcm_host</title>
<path fill="none" stroke="#bfbfbf" d="M638.383,-557.932C599.413,-542.088 509.318,-505.461 466.465,-488.039"/>
<polygon fill="#bfbfbf" stroke="#bfbfbf" points="467.017,-486.375 461.726,-486.113 465.699,-489.617 467.017,-486.375"/>
</g>
<!-- hello_pi/hello_video&#45;&gt;ilclient -->
<g id="edge15" class="edge"><title>hello_pi/hello_video&#45;&gt;ilclient</title>
<path fill="none" stroke="black" d="M647.416,-557.779C628.153,-542.262 584.699,-507.257 562.542,-489.409"/>
<polygon fill="black" stroke="black" points="563.4,-487.853 558.409,-486.079 561.205,-490.579 563.4,-487.853"/>
</g>
<!-- hello_pi/hello_encode -->
<g id="node17" class="node"><title>hello_pi/hello_encode</title>
<path fill="white" stroke="grey" d="M590.333,-575C590.333,-575 507.667,-575 507.667,-575 504.833,-575 502,-572.167 502,-569.333 502,-569.333 502,-563.667 502,-563.667 502,-560.833 504.833,-558 507.667,-558 507.667,-558 590.333,-558 590.333,-558 593.167,-558 596,-560.833 596,-563.667 596,-563.667 596,-569.333 596,-569.333 596,-572.167 593.167,-575 590.333,-575"/>
<text text-anchor="middle" x="549" y="-564.6" font-family="Arial" font-size="8.00">hello_pi/hello_encode</text>
</g>
<!-- hello_pi/hello_encode&#45;&gt;bcm_host -->
<g id="edge16" class="edge"><title>hello_pi/hello_encode&#45;&gt;bcm_host</title>
<path fill="none" stroke="#bfbfbf" d="M539.593,-557.779C520.688,-542.262 478.038,-507.257 456.292,-489.409"/>
<polygon fill="#bfbfbf" stroke="#bfbfbf" points="457.21,-487.899 452.234,-486.079 454.989,-490.604 457.21,-487.899"/>
</g>
<!-- hello_pi/hello_encode&#45;&gt;ilclient -->
<g id="edge17" class="edge"><title>hello_pi/hello_encode&#45;&gt;ilclient</title>
<path fill="none" stroke="black" d="M549,-557.779C549,-542.78 549,-509.569 549,-491.25"/>
<polygon fill="black" stroke="black" points="550.75,-491.079 549,-486.079 547.25,-491.079 550.75,-491.079"/>
</g>
<!-- hello_pi/hello_mmal_encode -->
<g id="node18" class="node"><title>hello_pi/hello_mmal_encode</title>
<path fill="white" stroke="grey" d="M262.333,-575C262.333,-575 157.667,-575 157.667,-575 154.833,-575 152,-572.167 152,-569.333 152,-569.333 152,-563.667 152,-563.667 152,-560.833 154.833,-558 157.667,-558 157.667,-558 262.333,-558 262.333,-558 265.167,-558 268,-560.833 268,-563.667 268,-563.667 268,-569.333 268,-569.333 268,-572.167 265.167,-575 262.333,-575"/>
<text text-anchor="middle" x="210" y="-564.6" font-family="Arial" font-size="8.00">hello_pi/hello_mmal_encode</text>
</g>
<!-- hello_pi/hello_mmal_encode&#45;&gt;bcm_host -->
<g id="edge19" class="edge"><title>hello_pi/hello_mmal_encode&#45;&gt;bcm_host</title>
<path fill="none" stroke="#bfbfbf" d="M230.27,-557.932C272.786,-542.056 371.192,-505.312 417.735,-487.934"/>
<polygon fill="#bfbfbf" stroke="#bfbfbf" points="418.539,-489.501 422.611,-486.113 417.315,-486.223 418.539,-489.501"/>
</g>
<!-- mmal -->
<g id="node19" class="node"><title>mmal</title>
<path fill="white" stroke="grey" d="M171.833,-486C171.833,-486 148.167,-486 148.167,-486 145.333,-486 142.5,-483.167 142.5,-480.333 142.5,-480.333 142.5,-474.667 142.5,-474.667 142.5,-471.833 145.333,-469 148.167,-469 148.167,-469 171.833,-469 171.833,-469 174.667,-469 177.5,-471.833 177.5,-474.667 177.5,-474.667 177.5,-480.333 177.5,-480.333 177.5,-483.167 174.667,-486 171.833,-486"/>
<text text-anchor="middle" x="160" y="-475.6" font-family="Arial" font-size="8.00">mmal</text>
</g>
<!-- hello_pi/hello_mmal_encode&#45;&gt;mmal -->
<g id="edge18" class="edge"><title>hello_pi/hello_mmal_encode&#45;&gt;mmal</title>
<path fill="none" stroke="black" d="M205.563,-557.779C196.868,-542.65 177.526,-508.995 167.057,-490.779"/>
<polygon fill="black" stroke="black" points="168.365,-489.542 164.356,-486.079 165.33,-491.286 168.365,-489.542"/>
</g>
<!-- mmal&#45;&gt;OMX_Broadcom -->
<g id="edge26" class="edge"><title>mmal&#45;&gt;OMX_Broadcom</title>
<path fill="none" stroke="black" d="M174.441,-468.932C204.364,-453.249 273.144,-417.202 306.776,-399.575"/>
<polygon fill="black" stroke="black" points="307.858,-400.984 311.474,-397.113 306.233,-397.884 307.858,-400.984"/>
</g>
<!-- hello_pi/hello_teapot -->
<g id="node20" class="node"><title>hello_pi/hello_teapot</title>
<path fill="white" stroke="grey" d="M801.833,-575C801.833,-575 724.167,-575 724.167,-575 721.333,-575 718.5,-572.167 718.5,-569.333 718.5,-569.333 718.5,-563.667 718.5,-563.667 718.5,-560.833 721.333,-558 724.167,-558 724.167,-558 801.833,-558 801.833,-558 804.667,-558 807.5,-560.833 807.5,-563.667 807.5,-563.667 807.5,-569.333 807.5,-569.333 807.5,-572.167 804.667,-575 801.833,-575"/>
<text text-anchor="middle" x="763" y="-564.6" font-family="Arial" font-size="8.00">hello_pi/hello_teapot</text>
</g>
<!-- hello_pi/hello_teapot&#45;&gt;bcm_host -->
<g id="edge20" class="edge"><title>hello_pi/hello_teapot&#45;&gt;bcm_host</title>
<path fill="none" stroke="#bfbfbf" d="M735.162,-557.932C675.706,-541.767 536.667,-503.966 474.274,-487.003"/>
<polygon fill="#bfbfbf" stroke="#bfbfbf" points="474.482,-485.246 469.198,-485.622 473.563,-488.623 474.482,-485.246"/>
</g>
<!-- egl -->
<g id="node21" class="node"><title>egl</title>
<path fill="white" stroke="grey" d="M770.833,-486C770.833,-486 755.167,-486 755.167,-486 752.333,-486 749.5,-483.167 749.5,-480.333 749.5,-480.333 749.5,-474.667 749.5,-474.667 749.5,-471.833 752.333,-469 755.167,-469 755.167,-469 770.833,-469 770.833,-469 773.667,-469 776.5,-471.833 776.5,-474.667 776.5,-474.667 776.5,-480.333 776.5,-480.333 776.5,-483.167 773.667,-486 770.833,-486"/>
<text text-anchor="middle" x="763" y="-475.6" font-family="Arial" font-size="8.00">egl</text>
</g>
<!-- hello_pi/hello_teapot&#45;&gt;egl -->
<g id="edge21" class="edge"><title>hello_pi/hello_teapot&#45;&gt;egl</title>
<path fill="none" stroke="black" d="M763,-557.779C763,-542.78 763,-509.569 763,-491.25"/>
<polygon fill="black" stroke="black" points="764.75,-491.079 763,-486.079 761.25,-491.079 764.75,-491.079"/>
</g>
<!-- gles -->
<g id="node22" class="node"><title>gles</title>
<path fill="white" stroke="grey" d="M725.333,-486C725.333,-486 704.667,-486 704.667,-486 701.833,-486 699,-483.167 699,-480.333 699,-480.333 699,-474.667 699,-474.667 699,-471.833 701.833,-469 704.667,-469 704.667,-469 725.333,-469 725.333,-469 728.167,-469 731,-471.833 731,-474.667 731,-474.667 731,-480.333 731,-480.333 731,-483.167 728.167,-486 725.333,-486"/>
<text text-anchor="middle" x="715" y="-475.6" font-family="Arial" font-size="8.00">gles</text>
</g>
<!-- hello_pi/hello_teapot&#45;&gt;gles -->
<g id="edge22" class="edge"><title>hello_pi/hello_teapot&#45;&gt;gles</title>
<path fill="none" stroke="black" d="M758.74,-557.779C750.393,-542.65 731.825,-508.995 721.775,-490.779"/>
<polygon fill="black" stroke="black" points="723.129,-489.612 719.182,-486.079 720.065,-491.302 723.129,-489.612"/>
</g>
<!-- egl&#45;&gt;vmcs_host/vc_dispmanx -->
<g id="edge28" class="edge"><title>egl&#45;&gt;vmcs_host/vc_dispmanx</title>
<path fill="none" stroke="black" d="M754.303,-468.779C736.824,-453.262 697.393,-418.257 677.288,-400.409"/>
<polygon fill="black" stroke="black" points="678.438,-399.09 673.537,-397.079 676.115,-401.707 678.438,-399.09"/>
</g>
<!-- OMX_Broadcom&#45;&gt;OMX_Component -->
<g id="edge27" class="edge"><title>OMX_Broadcom&#45;&gt;OMX_Component</title>
<path fill="none" stroke="black" d="M336.028,-379.779C356.266,-364.198 402.028,-328.965 425.119,-311.187"/>
<polygon fill="black" stroke="black" points="426.262,-312.516 429.156,-308.079 424.126,-309.743 426.262,-312.516"/>
</g>
<!-- tjormola -->
<g id="node24" class="node"><title>tjormola</title>
<path fill="pink" stroke="grey" d="M378.333,-575C378.333,-575 345.667,-575 345.667,-575 342.833,-575 340,-572.167 340,-569.333 340,-569.333 340,-563.667 340,-563.667 340,-560.833 342.833,-558 345.667,-558 345.667,-558 378.333,-558 378.333,-558 381.167,-558 384,-560.833 384,-563.667 384,-563.667 384,-569.333 384,-569.333 384,-572.167 381.167,-575 378.333,-575"/>
<text text-anchor="middle" x="362" y="-564.6" font-family="Arial" font-size="8.00">tjormola</text>
</g>
<!-- tjormola&#45;&gt;bcm_host -->
<g id="edge34" class="edge"><title>tjormola&#45;&gt;bcm_host</title>
<path fill="none" stroke="#bfbfbf" d="M369.188,-557.779C383.515,-542.392 415.684,-507.839 432.424,-489.859"/>
<polygon fill="#bfbfbf" stroke="#bfbfbf" points="433.817,-490.931 435.944,-486.079 431.256,-488.546 433.817,-490.931"/>
</g>
<!-- tjormola&#45;&gt;OMX_Broadcom -->
<g id="edge31" class="edge"><title>tjormola&#45;&gt;OMX_Broadcom</title>
<path fill="none" stroke="black" d="M360.453,-557.938C354.858,-530.582 335.632,-436.588 328.601,-402.217"/>
<polygon fill="black" stroke="black" points="330.298,-401.78 327.582,-397.233 326.869,-402.482 330.298,-401.78"/>
</g>
<!-- gagle -->
<g id="node25" class="node"><title>gagle</title>
<path fill="pink" stroke="grey" d="M316.333,-575C316.333,-575 291.667,-575 291.667,-575 288.833,-575 286,-572.167 286,-569.333 286,-569.333 286,-563.667 286,-563.667 286,-560.833 288.833,-558 291.667,-558 291.667,-558 316.333,-558 316.333,-558 319.167,-558 322,-560.833 322,-563.667 322,-563.667 322,-569.333 322,-569.333 322,-572.167 319.167,-575 316.333,-575"/>
<text text-anchor="middle" x="304" y="-564.6" font-family="Arial" font-size="8.00">gagle</text>
</g>
<!-- gagle&#45;&gt;bcm_host -->
<g id="edge33" class="edge"><title>gagle&#45;&gt;bcm_host</title>
<path fill="none" stroke="#bfbfbf" d="M316.335,-557.779C341.437,-542.068 398.458,-506.379 426.627,-488.748"/>
<polygon fill="#bfbfbf" stroke="#bfbfbf" points="427.581,-490.215 430.891,-486.079 425.724,-487.249 427.581,-490.215"/>
</g>
<!-- gagle&#45;&gt;OMX_Broadcom -->
<g id="edge32" class="edge"><title>gagle&#45;&gt;OMX_Broadcom</title>
<path fill="none" stroke="black" d="M304.945,-557.938C308.365,-530.582 320.114,-436.588 324.41,-402.217"/>
<polygon fill="black" stroke="black" points="326.15,-402.411 325.033,-397.233 322.677,-401.977 326.15,-402.411"/>
</g>
<!-- raspicam -->
<g id="node26" class="node"><title>raspicam</title>
<path fill="pink" stroke="grey" d="M128.333,-575C128.333,-575 89.6667,-575 89.6667,-575 86.8333,-575 84,-572.167 84,-569.333 84,-569.333 84,-563.667 84,-563.667 84,-560.833 86.8333,-558 89.6667,-558 89.6667,-558 128.333,-558 128.333,-558 131.167,-558 134,-560.833 134,-563.667 134,-563.667 134,-569.333 134,-569.333 134,-572.167 131.167,-575 128.333,-575"/>
<text text-anchor="middle" x="109" y="-564.6" font-family="Arial" font-size="8.00">raspicam</text>
</g>
<!-- raspicam&#45;&gt;bcm_host -->
<g id="edge36" class="edge"><title>raspicam&#45;&gt;bcm_host</title>
<path fill="none" stroke="#bfbfbf" d="M134.104,-558.961C194.135,-543.324 345.873,-503.8 411.715,-486.649"/>
<polygon fill="#bfbfbf" stroke="#bfbfbf" points="412.285,-488.309 416.683,-485.355 411.403,-484.922 412.285,-488.309"/>
</g>
<!-- raspicam&#45;&gt;mmal -->
<g id="edge35" class="edge"><title>raspicam&#45;&gt;mmal</title>
<path fill="none" stroke="black" d="M113.526,-557.779C122.395,-542.65 142.123,-508.995 152.802,-490.779"/>
<polygon fill="black" stroke="black" points="154.538,-491.278 155.557,-486.079 151.519,-489.508 154.538,-491.278"/>
</g>
<!-- mmalcam -->
<g id="node27" class="node"><title>mmalcam</title>
<path fill="pink" stroke="grey" d="M60.3333,-575C60.3333,-575 21.6667,-575 21.6667,-575 18.8333,-575 16,-572.167 16,-569.333 16,-569.333 16,-563.667 16,-563.667 16,-560.833 18.8333,-558 21.6667,-558 21.6667,-558 60.3333,-558 60.3333,-558 63.1667,-558 66,-560.833 66,-563.667 66,-563.667 66,-569.333 66,-569.333 66,-572.167 63.1667,-575 60.3333,-575"/>
<text text-anchor="middle" x="41" y="-564.6" font-family="Arial" font-size="8.00">mmalcam</text>
</g>
<!-- mmalcam&#45;&gt;mmal -->
<g id="edge37" class="edge"><title>mmalcam&#45;&gt;mmal</title>
<path fill="none" stroke="black" d="M51.5605,-557.779C72.8731,-542.198 121.065,-506.965 145.382,-489.187"/>
<polygon fill="black" stroke="black" points="146.63,-490.443 149.633,-486.079 144.564,-487.617 146.63,-490.443"/>
</g>
</g>
</svg>
